<?xml version="1.0" encoding="UTF-8" standalone="no"?>
<!-- Created with Inkscape (http://www.inkscape.org/) -->

<svg
   xmlns:dc="http://purl.org/dc/elements/1.1/"
   xmlns:cc="http://creativecommons.org/ns#"
   xmlns:rdf="http://www.w3.org/1999/02/22-rdf-syntax-ns#"
   xmlns:svg="http://www.w3.org/2000/svg"
   xmlns="http://www.w3.org/2000/svg"
   xmlns:sodipodi="http://sodipodi.sourceforge.net/DTD/sodipodi-0.dtd"
   xmlns:inkscape="http://www.inkscape.org/namespaces/inkscape"
   version="1.1"
   id="svg3761"
   width="1200"
   height="1200"
   viewBox="0 0 1200 1200"
   sodipodi:docname="WebLogo.svg"
   inkscape:version="0.92.4 (5da689c313, 2019-01-14)">
  <metadata
     id="metadata3767">
    <rdf:RDF>
      <cc:Work
         rdf:about="">
        <dc:format>image/svg+xml</dc:format>
        <dc:type
           rdf:resource="http://purl.org/dc/dcmitype/StillImage" />
        <dc:title></dc:title>
      </cc:Work>
    </rdf:RDF>
  </metadata>
  <defs
     id="defs3765" />
  <sodipodi:namedview
     pagecolor="#ffffff"
     bordercolor="#666666"
     borderopacity="1"
     objecttolerance="10"
     gridtolerance="10"
     guidetolerance="10"
     inkscape:pageopacity="0"
     inkscape:pageshadow="2"
     inkscape:window-width="1920"
     inkscape:window-height="1001"
     id="namedview3763"
     showgrid="false"
     inkscape:zoom="0.39333333"
     inkscape:cx="1195.4147"
     inkscape:cy="934.65444"
     inkscape:window-x="-9"
     inkscape:window-y="-9"
     inkscape:window-maximized="1"
     inkscape:current-layer="svg3761" />
  <g
     id="g3879"
     transform="translate(0.00515577)">
    <path
       style="fill:#fcfcfc"
       d="M 0,600 8.9886457,142.91947 132.12791,21.57275 600,0 1009.8483,8.262712 1189.1949,162.71187 1200,600 1196.1864,1015.3791 1019.4915,1189.8305 600,1200 140.35674,1193.6441 8.262712,1046.1864 Z"
       id="path3895"
       inkscape:connector-curvature="0"
       sodipodi:nodetypes="ccccccccccccc" />
    <path
       style="fill:#b4d2c8"
       d="M 755.79492,38.519531 C 543.87738,38.901375 331.72494,37.788461 119.95508,39.759766 95.698115,41.24712 73.444562,56.391007 58.410156,75.119141 44.668678,92.496588 37.848218,115.44512 39.748537,137.45691 c -1.603749,183.23549 -0.968104,366.4809 -1.34424,549.72082 0.215171,133.15966 0.0682,266.37242 1.859916,399.49467 9.026745,45.5522 55.582154,79.7686 101.849067,74.6537 313.8535,-0.1921 627.72601,1.6514 941.56442,-1.8222 21.9261,-2.3873 41.2996,-16.0125 55.3626,-32.4267 16.5394,-19.7245 24.1022,-45.6779 22.8089,-71.2022 -0.1121,-31.7403 -0.9348,-63.47601 -0.2749,-95.21484 0.2815,-280.50019 0.5528,-561.00401 -1.2891,-841.5 -6.2192,-46.112484 -51.3587,-83.922409 -98.002,-79.991073 C 960.11984,39.333025 857.95817,38.466654 755.79492,38.519531 Z M 453.6875,44.197266 c 92.79413,-0.484939 181.42608,63.738544 211.3418,151.328124 16.19726,36.42153 33.72268,72.33384 48.10937,109.56055 59.45706,-25.70031 117.46836,-55.8607 180.05274,-73.45313 93.22278,-18.10627 195.47059,30.96408 238.50779,115.8711 39.8137,74.84786 31.9788,172.44093 -20.192,239.45702 -27.0662,35.99392 -65.5781,62.18908 -107.413,78.1256 -35.89325,16.19993 -72.22716,31.42112 -107.86373,48.19472 25.25927,59.3935 57.59481,116.44312 73.41326,179.44944 17.52635,86.0312 -23.18367,180.15551 -96.56215,227.85951 -61.38506,40.7884 -143.05894,47.2696 -210.73525,18.6915 -48.31837,-19.6299 -87.15373,-58.4214 -111.41499,-104.1236 -15.51867,-27.9973 -25.5622,-58.52306 -39.44817,-87.29897 -7.7978,-17.3964 -15.63229,-34.76087 -23.6609,-52.06811 -62.74946,26.22962 -122.8281,61.54417 -190.22461,75.09179 C 205.52319,983.64706 107.32764,932.86803 67.257422,848.45175 27.44179,768.69127 40.5063,664.68388 101.87366,599.31105 c 32.85455,-36.66125 78.14025,-58.8976 123.42589,-76.1907 26.79202,-11.9028 53.50021,-23.99266 80.18873,-36.12621 -26.03172,-63.08288 -61.98773,-123.26138 -74.97461,-191.07031 -12.43503,-94.177 41.97148,-194.06219 129.71289,-231.810549 29.33289,-12.974613 61.3438,-20.116295 93.46094,-19.916015 z m -4.20312,98.603514 c -62.61757,-0.10079 -119.55441,54.90518 -121.99635,116.96873 -2.18841,34.98361 13.43297,68.535 28.58804,99.50378 18.43178,41.06021 37.69051,81.77826 54.34581,123.60757 29.88271,-48.4815 79.05705,-82.57207 132.16716,-101.34262 27.35922,-11.88172 54.48746,-24.2859 81.56721,-36.78824 -19.77349,-41.66513 -36.31395,-84.81144 -57.02683,-125.99287 -11.7174,-23.1989 -27.51199,-45.77051 -50.78372,-58.49151 -20.06521,-11.72158 -43.50288,-17.84753 -66.86132,-17.46484 z m 483.69726,183.52539 c -37.07576,0.413 -70.2311,20.24096 -103.46875,34.83985 -25.12964,10.70494 -50.0248,21.93637 -74.82227,33.33789 33.46243,76.24449 66.95653,152.48633 101.47657,228.26367 54.53045,-24.82225 111.95365,-44.82218 161.61721,-78.96875 43.7673,-39.13912 54.5664,-111.39559 20.6859,-159.80365 -22.9707,-34.75615 -63.26849,-58.45958 -105.48866,-57.66901 z M 375.75195,564.01953 c -62.71619,29.47669 -128.97425,52.40063 -187.85017,89.39378 -31.06884,23.84548 -46.40206,64.59835 -45.06937,102.87668 1.46661,37.85065 21.79772,73.95291 53.20665,95.17485 32.25246,22.54523 75.28317,29.89233 112.41278,15.44717 38.01887,-12.90069 72.90699,-33.22039 110.10642,-48.12914 21.6099,-9.66542 43.27957,-19.20638 65.14291,-28.28678 C 414.52313,749.08831 371.9293,667.23067 378.09664,586.83564 c 0.4797,-8.46594 1.4252,-16.90643 2.85258,-25.26533 -1.73242,0.81641 -3.46484,1.63281 -5.19727,2.44922 z M 802.79102,754.875 c -54.00136,23.19363 -106.73242,50.7445 -163.86719,65.71289 -25.14802,4.71075 -51.13709,4.23405 -76.26172,-0.37695 28.5235,62.78731 53.11701,127.52508 87.34043,187.50996 35.25725,51.2431 112.29804,66.7887 164.58278,33.2301 38.78289,-23.8565 64.05536,-69.22568 60.45765,-115.27522 -2.80217,-33.51672 -20.03671,-63.39825 -33.23869,-93.77775 -12.22278,-25.99857 -24.00417,-52.22358 -34.12459,-79.12264 -1.62956,0.69987 -3.25912,1.39974 -4.88867,2.09961 z"
       id="path3893"
       inkscape:connector-curvature="0" />
    <path
       style="fill:#9ec5b8"
       d="m 522.70312,46.300781 c 69.88941,22.653863 128.27775,79.037789 151.81243,148.825229 14.72645,32.64296 30.15418,64.99 43.39461,98.28024 58.26522,-25.18205 114.90963,-55.70861 176.90234,-70.9707 99.31805,-17.9643 207.4575,37.44818 249.0907,129.76938 3.8095,8.06178 7.1163,16.36009 9.9308,24.82046 -0.503,-84.87663 0.032,-169.79723 -2.1425,-254.6396 -4.1891,-36.588853 -34.45,-68.240757 -70.9763,-73.976523 -20.2975,-2.966771 -41.5291,-0.04515 -62.3225,-1.205935 -165.22824,-0.872114 -330.45945,-0.92666 -495.68958,-0.902551 z m -288.01953,0.03906 C 200.69839,46.50303 166.48176,46.16704 132.64882,47.296879 113.33321,48.218236 93.47952,53.373392 78.6875,66.798828 54.064106,87.569374 41.922201,121.55802 45.988884,153.03122 c 1.035723,175.78435 -0.420606,351.5703 -0.143181,527.3555 15.901669,-53.35085 52.26459,-100.0521 99.906797,-128.80778 40.52011,-24.87752 86.10919,-39.56438 128.73259,-60.23434 6.50953,-2.93388 13.01905,-5.86775 19.52858,-8.80163 -26.69873,-62.67404 -62.186,-123.21785 -72.88838,-191.46536 -10.14338,-96.18583 46.15226,-196.750933 135.70674,-234.894016 8.50818,-3.755454 17.21922,-7.051954 26.09375,-9.833985 -49.41406,0.03525 -98.82812,-0.04006 -148.24219,-0.0098 z M 448.51367,151.42578 c -52.24575,1.02759 -99.07707,41.66869 -110.18164,92.21875 -7.70603,35.1716 5.86941,70.54302 21.00977,102.06445 18.4488,39.10389 36.07213,78.60305 53.0332,118.375 32.77966,-45.14037 82.35383,-75.14447 134.2351,-93.5893 22.11166,-9.80461 43.99573,-20.13755 66.0774,-30.05327 -24.76058,-49.7979 -40.86295,-104.17769 -73.42241,-149.76803 -22.21479,-26.17115 -56.76237,-39.71501 -90.75142,-39.2476 z M 933.73242,335.1582 c -39.52239,0.63906 -73.76303,23.31381 -109.27812,37.96844 -19.54364,8.19707 -38.76596,17.08758 -58.05782,25.8675 30.78302,70.94784 62.70577,141.37857 94.35352,211.96094 51.58513,-23.42655 106.43413,-41.34584 152.7422,-74.83594 42.0427,-39.34654 49.3003,-111.84548 11.5041,-156.03857 -21.911,-27.32928 -56.07516,-45.35587 -91.26388,-44.92237 z m 220.34178,190.65235 c -20.7045,62.94519 -70.4965,114.50761 -131.0338,140.61848 -32.22365,13.92782 -64.31926,27.90765 -96.20492,42.62022 -6.45347,2.92553 -12.89712,5.87266 -19.33353,8.83552 26.74369,61.7753 62.52749,121.25651 73.25,188.70117 12.3154,97.32286 -44.30925,199.87746 -134.76156,238.94406 -7.00236,3.1642 -14.17113,5.9592 -21.465,8.3762 85.16685,-0.3338 170.50524,-0.1527 255.56051,-1.8046 44.999,-7.1831 78.3142,-53.0753 73.442,-98.0371 0.043,-176.07804 0.5992,-352.20972 0.5463,-528.25395 z M 367.46289,577.2793 c -59.91254,28.64223 -124.09288,49.36206 -179.25,87.08789 -43.66076,39.88623 -49.67081,114.56329 -10.0957,159.05859 31.44164,37.58668 88.55011,53.39093 133.59961,32.9336 51.577,-21.24041 101.70836,-45.79625 152.9707,-67.75977 -66.35091,-47.16786 -104.52335,-131.661 -94.47461,-212.64258 -0.91667,0.44076 -1.83333,0.88151 -2.75,1.32227 z m 431.8418,188.54101 c -53.70763,23.24166 -106.07044,51.75481 -163.74364,64.19451 -19.30223,3.51726 -39.10598,3.30399 -58.55519,1.20393 28.04064,59.77411 49.90711,123.06358 85.80121,178.67045 33.4428,40.3327 96.6338,51.9915 142.57812,26.4208 41.52545,-22.7337 67.32105,-72.27549 59.7185,-119.09233 -3.81138,-25.90623 -17.18054,-49.25552 -27.28883,-73.15739 -12.10864,-26.38691 -24.8002,-52.5373 -35.44767,-79.56419 -1.02084,0.44141 -2.04167,0.88282 -3.0625,1.32422 z M 46.025391,831.05273 c 0.537707,84.66431 0.15509,169.40027 2.521168,254.00997 9.629025,43.6483 55.949611,74.8115 100.097971,68.6169 175.75133,-0.4141 351.50261,0.243 527.25391,0.3321 -53.35023,-17.3416 -98.69554,-55.7873 -126.89777,-104.0216 -21.37762,-36.0739 -34.35886,-76.22262 -52.53431,-113.87086 -4.36724,-9.64453 -8.73632,-19.28766 -13.10894,-28.92979 -62.67318,26.974 -123.37237,61.95804 -191.53703,73.21041 C 193.09041,991.37693 90.088259,931.67334 53.126953,838.9668 c -2.687831,-6.39738 -5.072233,-12.92232 -7.138672,-19.54688 0.01237,3.87761 0.02474,7.75521 0.03711,11.63281 z"
       id="path3891"
       inkscape:connector-curvature="0" />
    <path
       style="fill:#89b9a9"
       d="m 1059.0312,75.853516 c -142.49806,1.211407 -285.00008,-0.290905 -427.49995,0.109375 39.35448,36.431309 65.45193,84.792079 83.37704,134.797909 6.42977,14.19099 12.90445,28.36033 19.13859,42.63764 59.07204,-26.58587 118.35198,-57.4032 183.75781,-64.25 75.60752,-4.77461 152.06921,26.48341 204.96481,79.76953 -0.2652,-52.3315 2.5013,-105.14877 -4.9238,-156.91992 -10.0573,-22.382049 -34.3804,-36.788078 -58.8145,-36.144534 z m -833.498,0.654296 c -39.36173,1.8394 -79.7506,-3.671683 -118.07395,7.266547 -24.893328,13.959319 -36.482327,45.425561 -31.148703,72.573301 0.02898,137.6524 -0.170163,275.30471 -0.292969,412.95703 39.109602,-41.09164 91.299372,-66.14826 143.353182,-86.64832 11.6507,-4.97743 23.32518,-9.89856 34.83432,-15.09192 -27.26023,-58.63812 -57.51736,-118.10522 -63.87891,-183.44922 -5.30764,-76.94894 26.65766,-154.83311 82.37305,-207.765621 -15.71948,0.09158 -31.45409,-0.25725 -47.16602,0.158203 z M 450.47656,181.88086 c -46.1181,-0.18254 -88.0548,43.99028 -83.32617,90.28125 5.88416,45.16571 33.13793,83.32161 49.22656,125.16211 2.38945,3.47954 2.60928,7.97393 4.86133,11.50976 41.30837,-38.67406 94.59419,-60.44471 146.19531,-81.50781 5.12689,-0.21127 4.67906,-3.49018 2.26643,-7.12523 -17.9322,-41.21568 -32.18272,-85.78921 -63.54377,-119.28492 -15.52259,-12.68784 -35.68099,-19.36113 -55.67969,-19.03516 z m 483.80469,183.84375 c -40.79227,1.92174 -74.2106,27.73299 -111.53578,41.2827 -5.50861,2.39157 -11.02216,4.77194 -16.50719,7.2173 23.00489,52.4018 46.24229,104.7033 70.0332,156.75391 43.23358,-18.8286 89.99829,-33.82816 125.22072,-66.41602 26.4686,-33.4059 23.2847,-87.75243 -9.52762,-115.63257 -15.57468,-14.05404 -36.49601,-23.59347 -57.68333,-23.20532 z m -597.9082,258.84766 c -47.08163,20.52669 -97.50042,37.44578 -136.61719,71.87695 -27.88487,35.05176 -22.23509,92.85081 13.95898,119.93359 28.89732,22.92467 71.53378,24.04474 102.51172,5.25781 30.99308,-13.40243 62.70389,-26.80802 92.2793,-42.37109 -39.32741,-42.51743 -64.15417,-98.19775 -69.42774,-155.87891 -0.90169,0.39389 -1.80338,0.78777 -2.70507,1.18165 z m 786.51955,9.25585 c -37.3049,38.57649 -86.2408,63.24128 -135.93838,81.85772 -13.08925,5.72339 -26.18243,11.41925 -39.21203,17.23018 26.98738,57.98762 57.71771,116.4618 64.39301,181.08314 6.0224,77.06824 -25.0322,155.46744 -80.18598,209.25864 51.3932,-0.1615 103.07768,1.645 154.12668,-4.224 27.7125,-12.0837 42.93,-45.1567 36.9417,-74.1139 0.1813,-137.24344 0.3811,-274.4869 0.4883,-411.73045 z m -345.33791,174.7793 c -49.16157,22.68088 -99.21069,46.43073 -153.50391,53.35352 21.11556,46.9226 37.67295,97.24595 70.9334,137.36504 33.64584,29.67792 91.6451,26.12322 120.01387,-9.16778 22.11428,-25.75635 27.51016,-64.67861 12.44114,-95.3437 -12.70459,-30.51542 -28.02281,-59.86565 -41.43724,-90.08989 -2.81575,1.29427 -5.63151,2.58854 -8.44726,3.88281 z M 76.724609,933.80859 c 0.33975,51.8526 -2.538171,104.24971 5.403477,155.47791 12.027641,25.7898 43.161414,39.5106 70.909024,34.6295 138.59692,-1.0702 277.19663,0.2331 415.79492,0.043 -40.77258,-39.3771 -65.79004,-91.5181 -86.08082,-143.64264 -4.73235,-11.1162 -9.42288,-22.25102 -14.33129,-33.29097 -58.74452,27.13798 -118.12924,57.75321 -183.52684,64.20671 -76.99409,5.6459 -154.95621,-26.24152 -208.176283,-81.70671 0.0026,1.42773 0.0052,2.85547 0.0078,4.2832 z"
       id="path3889"
       inkscape:connector-curvature="0" />
    <path
       style="fill:#67a490"
       d="m 1054.6348,37.980469 c -40.8037,1.730109 -81.65323,-0.216956 -122.47829,0.229883 -184.77452,-0.450334 -369.54986,0.192177 -554.32448,-0.18266 -85.17111,0.160893 -170.52812,0.03889 -255.57422,2.091449 -34.90668,3.125895 -65.434072,30.103575 -77.591794,62.599609 -6.681602,16.78206 -7.963127,35.03916 -6.166491,52.83789 -0.158983,307.82561 -2.015548,615.66215 1.260241,923.47856 6.378288,47.446 53.345887,85.8943 101.183594,82.3081 293.32497,0.2921 586.65787,1.4552 879.97804,-0.3968 24.7172,-0.7009 49.7977,1.2539 73.9165,-5.0344 40.3295,-13.071 67.6208,-55.171 66.6832,-96.9296 -1.2665,-44.4177 -0.1615,-88.91938 -0.3941,-133.37884 0.4451,-264.87754 1.2175,-529.86626 -1.0743,-794.67397 -0.4654,-34.706848 -22.9542,-67.269429 -54.0175,-82.035159 -15.887,-7.90463 -33.7968,-11.036785 -51.4004,-10.914062 z m -599.85941,4.818359 c 92.70938,-0.413302 180.95804,63.791622 211.10777,151.127582 16.17747,36.32293 33.87828,72.03013 47.85707,109.30406 58.7696,-25.23646 115.99212,-55.27401 177.82813,-72.6582 85.3651,-17.24407 178.90594,21.14869 227.55504,93.39573 40.8483,58.41692 51.3341,136.95494 26.0895,203.76833 -21.0426,58.64364 -67.0428,108.19837 -124.9352,131.75248 -40.21314,19.01366 -81.72635,35.21822 -121.91247,54.22799 22.32713,55.2642 52.90998,107.34019 69.14063,165.0039 18.91475,64.50174 1.97083,136.2388 -37.31601,189.7913 -43.09876,60.1561 -118.42184,94.0442 -191.92015,89.6362 -57.41155,-2.6061 -113.69022,-28.0036 -152.38689,-70.7244 C 557.29085,1056.7843 538.75456,1018.458 523.92357,979.66907 511.70828,952.30891 499.57295,924.913 487.14062,897.65039 423.23833,924.27315 362.24433,961.34019 293.00781,972.90625 201.87412,983.73074 105.98292,933.01222 66.168051,849.82529 26.478894,771.14225 38.129013,668.86863 96.857979,602.63736 125.35034,569.17933 164.14007,546.10398 204.86611,530.63125 c 32.90647,-14.85569 66.04795,-29.1926 98.81553,-44.35781 -26.5598,-62.9216 -62.17875,-123.21763 -74.76525,-191.12204 -11.71756,-92.48024 40.03606,-190.50599 125.2633,-229.711947 31.22239,-15.097054 65.9437,-22.713178 100.5957,-22.640625 z m -7.17578,101.437502 c -62.34841,0.78319 -118.40787,57.27168 -118.73047,119.88281 -0.49133,41.65793 21.98556,78.89315 38.34453,116.13071 15.12182,32.92027 30.20365,65.88386 43.57344,99.5646 31.43326,-49.35112 82.33461,-83.7649 137.13367,-102.41322 24.94308,-11.11968 49.89475,-22.16491 74.73156,-33.52037 C 594.88215,290.70356 578.87815,231.01207 542.3125,182.80078 518.27443,157.20001 482.59524,143.62056 447.59961,144.23633 Z M 933.48242,327.9375 c -36.15437,0.19257 -68.60557,19.53638 -100.86872,33.88631 -25.58849,10.54094 -50.89225,21.76737 -76.03753,33.33439 33.23663,75.36382 66.80639,150.58455 100.53125,225.72657 54.60302,-25.21116 112.92895,-44.5662 162.02538,-79.95508 44.2356,-41.87325 51.517,-118.37118 11.7135,-165.51193 -23.2781,-29.01583 -59.83414,-47.92043 -97.36388,-47.48026 z M 376.53125,565.27539 c -62.88198,29.50262 -129.13324,52.59164 -188.14453,89.73242 -32.59161,25.79681 -47.79151,69.42195 -43.35742,109.60938 4.7031,50.30335 45.46183,93.21395 93.92198,104.72785 26.46064,6.95706 54.8212,3.49968 79.48664,-7.69574 38.48428,-15.27527 75.17304,-34.64945 113.46241,-50.38584 15.99005,-7.19375 32.01197,-14.32821 48.25787,-20.92948 -71.7156,-44.38011 -113.3587,-132.14176 -102.74023,-215.77343 -0.46205,-2.91166 3.12648,-11.02441 -0.43306,-9.49713 z m 426.32227,191.26172 c -53.77385,23.01996 -106.11766,50.82784 -163.05274,65.51367 -24.83013,4.33663 -50.39441,4.2117 -75.23047,-0.0117 30.12268,62.47291 52.67212,128.74166 89.18371,187.92624 20.9262,29.8654 58.23652,45.7558 94.19683,46.8199 34.0532,1.3029 68.43363,-12.3991 91.34993,-37.8125 30.32504,-32.03915 43.64719,-80.99005 27.82031,-122.95512 -15.71556,-46.21216 -40.55057,-88.70103 -58.02594,-134.30593 -1.86715,-2.59015 -1.57771,-9.52454 -6.24163,-5.17454 z"
       id="path3887"
       inkscape:connector-curvature="0" />
    <path
       style="fill:#479278"
       d="m 1060.0566,48.353516 c -123.01937,1.350523 -246.04539,-0.416717 -369.06832,0.08409 -50.95508,-0.0046 -101.91016,0.01813 -152.86523,0.0331 65.0968,25.862182 117.96305,81.065987 140.17404,147.588777 13.99233,31.01698 28.86693,61.65512 41.48611,93.27255 60.82285,-25.93449 119.79646,-58.90214 185.27579,-71.8866 100.10651,-12.86099 205.69591,46.21221 244.70471,139.77137 2.6735,7.92738 1.2792,-3.63382 1.5772,-7.17762 -0.4677,-77.28531 -0.057,-154.64313 -2.8733,-231.86615 -8.3294,-39.949694 -47.8222,-70.565318 -88.411,-69.819514 z m -701.55465,0.28125 C 277.9561,49.072717 197.31381,47.7881 116.83468,50.559354 74.6573,60.922103 43.730947,104.32278 48.965377,147.62891 49.098472,319.36236 48.320465,491.09482 48.259766,662.82812 69.244244,608.11472 112.46922,563.3564 164.61719,537.27734 c 37.63448,-19.46296 77.68307,-33.6434 115.73047,-52.11132 5.41169,-2.20749 12.27908,-3.88563 6.91736,-10.20985 C 260.65793,414.49382 227.44168,355.21589 217.66764,288.9926 207.86794,188.97913 269.71423,85.53781 364.00319,49.464939 c 6.57051,-1.830809 -4.35944,-0.406846 -5.50124,-0.830173 z m 89.25586,106.228514 c -57.4048,1.06846 -109.41035,53.20189 -108.23633,111.11524 0.283,39.81055 21.89221,75.11651 37.59251,110.746 12.3728,26.88984 24.57808,53.86094 36.06765,81.14071 34.61115,-45.25264 85.597,-74.92327 138.57749,-93.76272 18.91785,-8.28154 37.7191,-16.8206 56.49087,-25.40524 C 583.29397,288.11809 567.79652,231.9693 532.11328,187.42383 510.08235,165.51316 478.59106,154.02599 447.75781,154.86328 Z m 485.17188,183.76758 c -37.76767,1.05307 -71.57039,21.5412 -105.39063,36.66016 -19.02458,8.43643 -38.18154,16.57099 -57.12695,25.18945 30.4546,68.87642 61.0662,137.68324 91.86523,206.40625 51.87131,-23.68285 107.52575,-41.29523 152.92966,-76.76172 37.6226,-38.95187 42.8363,-107.13262 6.7598,-148.79492 -21.5534,-26.23819 -55.02338,-43.46498 -89.03711,-42.69922 z M 1150.709,543.44727 c -23.2804,56.05524 -69.6327,101.15775 -124.8594,125.71093 -37.5476,17.72825 -76.53199,32.26289 -113.91991,50.22266 25.51529,60.83069 60.80816,118.84222 71.85307,184.76188 14.37071,101.86476 -47.64542,209.16926 -143.25151,247.28886 80.68708,-0.556 161.45495,0.039 242.07775,-2.7735 43.5813,-9.7476 74.0573,-55.9284 68.5009,-99.787 -0.3104,-169.31749 0.6865,-338.63381 0.6362,-507.95118 -0.3457,0.84245 -0.6914,1.6849 -1.0371,2.52735 z m -784.87892,38.1875 c -58.99701,27.2704 -121.36836,48.26534 -175.24024,85.32421 -42.17214,37.74743 -48.18335,109.44135 -11.32171,152.70669 29.66668,37.65784 85.11673,53.73459 129.53383,34.25138 46.2367,-16.85381 89.22846,-41.53115 135.12773,-59.36432 4.38135,-2.16889 11.32044,-4.09842 14.13867,-6.69531 -62.85194,-47.29234 -99.04195,-127.9457 -91.94922,-206.35547 z m 433.03125,187.87109 c -55.87903,23.83662 -110.21212,54.15638 -170.65815,64.98975 -15.22732,1.77046 -30.63401,1.90188 -45.9024,0.5747 26.76313,58.34009 48.55268,119.46291 83.54102,173.52929 37.12909,43.5661 109.46483,51.0345 153.7124,14.4543 37.45441,-29.31593 54.8,-84.07471 36.09701,-128.55397 -15.30897,-43.20694 -38.86803,-82.89143 -54.78012,-125.85149 -0.66992,0.2858 -1.33984,0.57161 -2.00976,0.85742 z M 48.638672,849.52734 c 0.609494,77.87762 0.169661,155.82496 2.710066,233.64686 9.053291,42.9188 54.160832,73.173 97.043792,68.7103 130.60213,-1.2068 261.21124,-0.038 391.81641,-0.2014 40.26624,0.068 80.53262,0.1274 120.79887,0.042 -52.35324,-20.7694 -95.96641,-61.6811 -121.05367,-112.0093 -22.3608,-41.54495 -37.62835,-86.55778 -58.20219,-128.80124 -18.14873,8.87099 -36.89657,16.67661 -55.10227,25.50505 -44.68222,20.62653 -90.5514,41.3814 -139.82156,47.70003 -98.40293,8.7037 -199.670105,-51.48738 -236.535151,-143.58008 -2.65354,-8.60277 -1.47702,1.91844 -1.67105,5.74206 0.0056,1.08207 0.01117,2.16415 0.01675,3.24622 z"
       id="path3885"
       inkscape:connector-curvature="0" />
    <path
       style="fill:#328569"
       d="m 1047.5,41.996094 c -148.69036,0.80235 -297.38284,-0.306024 -446.07421,0.06623 -34.59114,-0.02173 -69.18229,-0.04904 -103.77345,-0.06038 79.09584,16.126703 147.95007,75.894367 173.97042,152.460967 15.19498,33.93799 31.62082,67.40719 45.10771,102.1113 59.87954,-25.46246 117.97854,-56.8292 181.5271,-72.52438 96.85743,-15.93308 201.17473,37.9898 242.68193,127.25094 7.5581,15.45322 13.2186,31.82097 16.9765,48.60352 -0.2735,-90.99427 -0.098,-182.02013 -1.2648,-272.99266 -6.5763,-43.061038 -43.5006,-81.223794 -87.8608,-84.111607 -7.0547,-0.714918 -14.1574,-0.832855 -21.2904,-0.803939 z m -699.66797,0.109375 c -74.59792,0.262346 -149.24193,0.007 -223.80664,1.535156 -41.187331,5.977668 -76.046269,42.244326 -80.911766,83.574645 -3.141325,25.12056 0.538932,50.79253 -0.792019,76.24956 -0.282177,167.17171 -0.358155,334.34373 -0.263011,501.51564 9.271338,-50.20535 36.180712,-96.89419 75.261716,-129.73438 31.37227,-26.88245 69.56838,-43.85461 107.5837,-59.04235 24.04146,-10.82357 48.13339,-21.56479 72.12919,-32.46155 C 270.57309,421.19718 235.33379,360.92853 223.56022,293.14537 211.91153,194.41112 271.9409,90.799338 365.28516,54.945312 c 14.01568,-5.711319 28.59079,-10.042003 43.44726,-12.927734 -20.30013,0.0293 -40.60026,0.05859 -60.90039,0.08789 z M 449.50586,149.07031 c -59.81762,0.21873 -115.13984,54.05358 -115.48438,114.48242 -0.93636,43.69329 23.83775,81.85636 40.51439,120.87691 12.75847,28.05742 25.65835,56.05603 37.48952,84.52153 30.31797,-44.24848 76.98039,-74.9944 126.80687,-93.25789 25.6552,-11.41005 51.45983,-22.48802 76.98805,-34.18351 -25.19084,-50.41859 -41.60334,-105.55915 -74.62413,-151.78648 -22.30462,-26.60173 -57.37847,-41.08664 -91.69032,-40.65298 z m 483.03516,183.94727 c -38.8234,1.04456 -73.19069,22.55024 -108.05298,37.70272 -20.70568,8.5402 -41.03406,17.94979 -61.40796,27.24259 32.02248,72.18122 64.20955,144.28887 96.63672,216.28906 51.75027,-23.70305 106.09017,-42.42042 153.4023,-74.42578 43.3661,-39.12898 52.5071,-112.07415 15.8569,-158.55669 -22.5627,-29.69866 -59.06531,-49.0763 -96.43498,-48.2519 z m 224.99808,171.38281 c -12.8208,56.95966 -48.9047,107.86898 -97.8016,139.62393 -22.3334,15.32435 -47.5667,25.38749 -72.37422,35.84873 -27.64118,12.17333 -55.44469,24.05216 -82.77148,36.86718 22.88992,53.00382 51.00968,104.11363 67.73575,159.61374 11.9083,43.08116 10.34825,89.67887 -4.77274,131.77363 -23.3552,68.093 -79.55887,125.0456 -149.12317,145.3314 -5.30073,1.6265 -10.65937,3.0653 -16.06641,4.293 90.89975,-0.2317 181.84219,0.2273 272.71507,-0.7297 44.2591,-7.7944 81.6398,-48.2748 82.0242,-93.8786 2.5041,-39.208 -1.1191,-78.58061 0.5637,-117.86049 0.1514,-147.67249 0.415,-295.34497 0.3533,-443.01759 -0.1608,0.71159 -0.3216,1.42318 -0.4824,2.13477 z m -788.97074,69.92383 c -59.8415,27.85339 -122.83408,49.64932 -178.4943,85.45436 -42.00799,35.36751 -53.54895,101.83485 -25.28304,148.92845 25.94061,44.85747 83.81274,69.97896 134.1289,54.60547 41.64963,-13.3592 80.22164,-35.00934 120.3905,-52.34875 16.64055,-7.37316 33.61601,-14.15294 50.12708,-21.66492 -68.41496,-47.37553 -108.27827,-133.99119 -96.99023,-216.78906 -1.29297,0.60481 -2.58594,1.20963 -3.87891,1.81445 z m 431.37695,188.77344 c -54.64711,23.13683 -107.5717,52.27261 -166.04687,64.8164 -20.02655,2.95124 -40.44812,2.89595 -60.51953,0.39844 27.91532,61.12438 50.77212,124.95534 86.65318,181.949 36.09484,44.1138 105.76552,55.2829 153.41322,23.5959 38.77104,-24.8259 62.11707,-73.69795 53.65235,-119.0117 -5.83552,-30.15397 -21.03078,-57.43034 -33.51699,-85.25012 -10.60392,-22.39864 -20.98424,-44.94375 -29.65294,-68.17566 -1.32747,0.55925 -2.65494,1.11849 -3.98242,1.67774 z M 42.191406,852.41602 c 0.327787,74.52609 -0.235325,149.09978 0.733179,223.59618 7.762022,42.1087 45.464841,79.8308 89.481725,81.104 34.95135,1.9546 70.05988,-0.9372 105.07806,0.4273 153.70502,0.1693 307.41012,0.3005 461.11524,0.2651 -50.65378,-11.0807 -96.98819,-40.3141 -128.6473,-81.401 -23.91515,-30.2629 -39.18185,-66.0567 -53.56376,-101.5226 -10.5624,-23.58403 -21.11565,-47.1632 -31.72839,-70.72484 -62.46044,26.46592 -122.4766,61.88568 -190.1215,73.72678 C 200.64434,989.26337 101.51604,936.89562 61.117188,850.75781 52.231322,832.79959 45.893687,813.6016 42.132812,793.92773 c 0.01953,19.4961 0.03906,38.99219 0.05859,58.48829 z"
       id="path3883"
       inkscape:connector-curvature="0" />
    <path
       style="fill:#177656"
       d="M 1054.5566,35.970703 C 894.09063,36.671065 733.62299,35.715968 573.15625,36.070544 425.56927,36.047309 277.96179,35.573082 130.39062,37.412109 96.95404,40.479607 64.843824,61.174523 49.371094,91.490234 37.18529,113.68779 34.215687,139.75342 36.681946,164.64256 c -1.036088,302.84484 -0.623076,605.6925 0.269226,908.53714 6.999666,42.5419 40.876742,81.5022 84.550098,88.2501 31.05471,5.2689 62.72984,0.1839 94.11396,1.8855 285.65326,0.4019 571.31145,1.2284 856.96097,-0.7665 48.4432,-6.3863 89.5982,-50.7056 89.9283,-99.8581 2.9757,-42.7158 -0.6982,-85.77358 0.9561,-128.63797 -0.1053,-268.60166 2.0079,-537.23988 -1.636,-805.8154 -4.965,-38.38216 -32.4508,-74.061767 -69.8344,-85.952174 -11.8615,-4.253232 -24.7332,-6.483242 -37.4336,-6.314453 z m -603.20504,6.845703 c 94.04424,-1.48597 184.41816,63.309004 214.61914,152.134764 16.11268,36.13272 33.63515,71.74965 47.62305,108.82031 59.67665,-24.94311 117.25044,-56.14367 179.86719,-73.49804 93.06645,-17.5947 195.07576,30.78277 238.54686,115.31836 40.4069,74.87874 33.5525,173.02157 -18.4026,240.65704 -27.5908,37.23845 -67.2348,64.41597 -110.4532,80.43399 -35.25848,15.68795 -70.75592,30.85806 -105.63052,47.39529 21.48047,49.96602 47.2829,98.14609 65.43264,149.49789 11.37298,33.53918 15.70049,69.92558 9.12708,104.82794 -12.24495,74.88865 -63.37691,143.62315 -134.31303,172.27665 -84.2325,36.1015 -190.59052,14.7939 -252.16465,-53.7783 -37.78579,-40.9475 -54.59999,-95.29222 -77.93261,-144.69543 -6.75313,-15.03118 -13.49912,-30.06493 -20.292,-45.07796 -62.49791,26.2199 -122.36585,61.042 -189.33008,75.03125 C 204.28568,985.287 104.35949,932.77643 64.716114,846.24777 24.737191,763.69547 41.417795,656.4718 107.19727,591.87109 140.03008,557.92116 184.05882,538.339 227.19656,521.03877 252.8092,509.53835 278.4429,498.10212 304.02734,486.53516 278.53616,425.31477 244.38844,366.80927 230.19727,301.41406 215.9788,210.96036 262.93702,113.2319 344.5918,70.671875 377.15679,52.779101 414.18941,43.074406 451.35156,42.816406 Z M 449.8457,143.90625 c -64.43902,-0.065 -122.79416,58.62546 -121.13867,123.32617 0.25824,41.06675 22.92711,77.14993 38.54245,113.97704 14.81567,32.92529 29.88618,65.75096 43.46732,99.21437 30.77474,-48.58832 80.55777,-82.74486 134.32166,-101.44763 26.1153,-11.3658 51.92842,-23.35528 77.93615,-34.96058 -25.38394,-50.28987 -42.24227,-104.90645 -73.36914,-152.18164 -22.98073,-31.07897 -61.7797,-48.53515 -99.75977,-47.92773 z m 482.79688,183.9043 c -37.47912,0.37173 -70.80078,20.41076 -104.41137,35.22929 -24.18604,10.33006 -48.17016,21.25213 -72.07301,32.27657 33.45279,75.48711 66.8959,150.97805 100.9043,226.21679 53.67989,-24.87241 110.30791,-44.57882 159.5586,-77.85547 44.2569,-39.76342 54.8189,-113.54207 18.9883,-162.25195 -22.945,-32.76587 -62.43532,-54.66126 -102.96682,-53.61523 z M 375.50781,565.04883 c -61.78745,29.2234 -126.79547,52.23192 -185.33789,87.8789 -32.80127,24.5894 -48.6867,67.68348 -45.82617,107.54688 2.87971,39.68698 27.39477,76.88652 62.29297,96.17773 31.83352,18.12953 71.11514,22.08966 105.25195,7.74024 40.13137,-14.6288 77.62085,-35.40899 117.11015,-51.63674 17.16981,-7.69904 34.40959,-15.25362 51.85665,-22.30467 C 409.19672,746.43085 367.2345,659.10971 377.52511,575.64313 c 0.42851,-4.12276 0.96813,-8.23433 1.62723,-12.32672 -1.21484,0.57747 -2.42968,1.15494 -3.64453,1.73242 z m 429.23242,190.39844 c -54.16821,22.93937 -106.45877,51.53726 -163.7539,66.19335 -25.21677,4.76477 -51.26518,4.42828 -76.51563,0.0879 28.67335,62.54642 52.74615,127.43337 87.625,186.93358 31.95238,43.7454 94.06932,60.1959 143.81446,40.2578 48.80785,-19.719 83.30164,-72.61258 77.7539,-125.53318 -3.98508,-35.96303 -22.7469,-68.1873 -37.38625,-100.73917 -10.72203,-22.29641 -20.19416,-45.16038 -29.28562,-68.15927 -0.75065,0.31966 -1.5013,0.63932 -2.25196,0.95899 z"
       id="path3881"
       inkscape:connector-curvature="0" />
  </g>
</svg>
